REM DIRINDEX 1\2,1\3,1\4,1\5,1\6
REM DIRNAME "folder01","folder02","folder03","folder04","folder05","folder06"
TITLE ""
FILE "Disc6Track54.mp3" MP3
  TRACK 01 AUDIO
    TITLE "3:cjc161_12114"
    INDEX 01 00:00:00
  TRACK 02 AUDIO
    TITLE "4:cjc161_12115"
    INDEX 01 00:00:73
  TRACK 03 AUDIO
    TITLE "5:cjc161_12116"
    INDEX 01 00:02:50
  TRACK 04 AUDIO
    TITLE "6:cjc161_12117"
    INDEX 01 00:03:60
  TRACK 05 AUDIO
    TITLE "0:"
    INDEX 01 00:07:44
  TRACK 06 AUDIO
    TITLE "3:cjc161_12118"
    INDEX 01 00:08:00
  TRACK 07 AUDIO
    TITLE "4:cjc161_12119"
    INDEX 01 00:09:05
  TRACK 08 AUDIO
    TITLE "5:cjc161_12120"
    INDEX 01 00:10:15
  TRACK 09 AUDIO
    TITLE "6:cjc161_12121"
    INDEX 01 00:11:18
  TRACK 10 AUDIO
    TITLE "0:"
    INDEX 01 00:13:33
  TRACK 11 AUDIO
    TITLE "3:cjc161_12122"
    INDEX 01 00:13:62
  TRACK 12 AUDIO
    TITLE "4:cjc161_12123"
    INDEX 01 00:14:73
  TRACK 13 AUDIO
    TITLE "5:cjc161_12124"
    INDEX 01 00:16:50
  TRACK 14 AUDIO
    TITLE "6:cjc161_12125"
    INDEX 01 00:17:60
  TRACK 15 AUDIO
    TITLE "0:"
    INDEX 01 00:22:22
  TRACK 16 AUDIO
    TITLE "3:cjc161_12126"
    INDEX 01 00:22:53
  TRACK 17 AUDIO
    TITLE "4:cjc161_12127"
    INDEX 01 00:23:62
  TRACK 18 AUDIO
    TITLE "5:cjc161_12128"
    INDEX 01 00:28:30
  TRACK 19 AUDIO
    TITLE "6:cjc161_12129"
    INDEX 01 00:29:35
  TRACK 20 AUDIO
    TITLE "0:"
    INDEX 01 00:31:11
  TRACK 21 AUDIO
    TITLE "3:cjc161_12130"
    INDEX 01 00:31:38
  TRACK 22 AUDIO
    TITLE "4:cjc161_12131"
    INDEX 01 00:32:53
  TRACK 23 AUDIO
    TITLE "5:cjc161_12132"
    INDEX 01 00:37:21
  TRACK 24 AUDIO
    TITLE "6:cjc161_12133"
    INDEX 01 00:38:34
  TRACK 25 AUDIO
    TITLE "0:"
    INDEX 01 00:42:01
  TRACK 26 AUDIO
    TITLE "3:cjc161_12134"
    INDEX 01 00:42:32
  TRACK 27 AUDIO
    TITLE "4:cjc161_12135"
    INDEX 01 00:43:53
  TRACK 28 AUDIO
    TITLE "5:cjc161_12136"
    INDEX 01 00:44:53
  TRACK 29 AUDIO
    TITLE "6:cjc161_12137"
    INDEX 01 00:45:72
  TRACK 30 AUDIO
    TITLE "0:"
    INDEX 01 00:49:15
  TRACK 31 AUDIO
    TITLE "3:cjc161_12138"
    INDEX 01 00:49:44
  TRACK 32 AUDIO
    TITLE "4:cjc161_12139"
    INDEX 01 00:50:59
  TRACK 33 AUDIO
    TITLE "5:cjc161_12140"
    INDEX 01 00:51:64
  TRACK 34 AUDIO
    TITLE "6:cjc161_12141"
    INDEX 01 00:53:03
  TRACK 35 AUDIO
    TITLE "0:"
    INDEX 01 00:56:32
  TRACK 36 AUDIO
    TITLE "3:cjc161_12142"
    INDEX 01 00:56:64
  TRACK 37 AUDIO
    TITLE "4:cjc161_12143"
    INDEX 01 00:58:08
  TRACK 38 AUDIO
    TITLE "5:cjc161_12144"
    INDEX 01 01:00:22
  TRACK 39 AUDIO
    TITLE "6:cjc161_12145"
    INDEX 01 01:01:41
  TRACK 40 AUDIO
    TITLE "0:"
    INDEX 01 01:04:08
  TRACK 41 AUDIO
    TITLE "3:cjc161_12146"
    INDEX 01 01:04:40
  TRACK 42 AUDIO
    TITLE "4:cjc161_12147"
    INDEX 01 01:05:47
  TRACK 43 AUDIO
    TITLE "5:cjc161_12148"
    INDEX 01 01:07:48
  TRACK 44 AUDIO
    TITLE "0:"
    INDEX 01 01:08:59
  TRACK 45 AUDIO
    TITLE "3:cjc161_12149"
    INDEX 01 01:09:21
  TRACK 46 AUDIO
    TITLE "4:cjc161_12150"
    INDEX 01 01:10:34
  TRACK 47 AUDIO
    TITLE "5:cjc161_12151"
    INDEX 01 01:13:68
  TRACK 48 AUDIO
    TITLE "6:cjc161_12152"
    INDEX 01 01:15:04
  TRACK 49 AUDIO
    TITLE "0:"
    INDEX 01 01:18:55
  TRACK 50 AUDIO
    TITLE "3:cjc161_12153"
    INDEX 01 01:19:12
  TRACK 51 AUDIO
    TITLE "4:cjc161_12154"
    INDEX 01 01:20:29
  TRACK 52 AUDIO
    TITLE "5:cjc161_12155"
    INDEX 01 01:22:30
  TRACK 53 AUDIO
    TITLE "6:cjc161_12156"
    INDEX 01 01:23:47
  TRACK 54 AUDIO
    TITLE "0:"
    INDEX 01 01:26:71
  TRACK 55 AUDIO
    TITLE "3:cjc161_12157"
    INDEX 01 01:27:25
  TRACK 56 AUDIO
    TITLE "4:cjc161_12158"
    INDEX 01 01:28:42
  TRACK 57 AUDIO
    TITLE "5:cjc161_12159"
    INDEX 01 01:29:59
  TRACK 58 AUDIO
    TITLE "0:"
    INDEX 01 01:31:01
  TRACK 59 AUDIO
    TITLE "3:cjc161_12160"
    INDEX 01 01:31:35
  TRACK 60 AUDIO
    TITLE "4:cjc161_12161"
    INDEX 01 01:32:50
  TRACK 61 AUDIO
    TITLE "5:cjc161_12162"
    INDEX 01 01:34:06
  TRACK 62 AUDIO
    TITLE "6:cjc161_12163"
    INDEX 01 01:35:19
  TRACK 63 AUDIO
    TITLE "0:"
    INDEX 01 01:37:22
  TRACK 64 AUDIO
    TITLE "3:cjc161_12164"
    INDEX 01 01:37:53
  TRACK 65 AUDIO
    TITLE "4:cjc161_12165"
    INDEX 01 01:38:66
  TRACK 66 AUDIO
    TITLE "5:cjc161_12166"
    INDEX 01 01:40:67
  TRACK 67 AUDIO
    TITLE "6:cjc161_12167"
    INDEX 01 01:42:05
  TRACK 68 AUDIO
    TITLE "0:"
    INDEX 01 01:46:50
